# xmcd
#
# Track frame offsets: 
#        150
#        10316
#        26506
#        40136
#        55289
#        68180
#        84816
#        97520
#        111517
#        126764
#        139638
#        155525
#        166028
#        181368
#        197118
#        220851
#
# Disc length: 3024 seconds
#
# Revision: 0
# Processed by: cddbd v1.5.2PL0 Copyright (c) Steve Scherf et al.
# Submitted via: ExactAudioCopy v0.99pb5
#
DISCID=cc0bce10
DTITLE=Carolina Chocolate Drops - Heritage
DYEAR=2007
DGENRE=Blues
TTITLE0=another man done gone
TTITLE1=wayward gal
TTITLE2=don't get trouble in your mind
TTITLE3=black eye blues
TTITLE4=georgie duck
TTITLE5=earl king
TTITLE6=Jack o'Diamonds
TTITLE7=short life of trouble
TTITLE8=po' Lazarus
TTITLE9=Rickett's hornpipe
TTITLE10=cornbread and butter beans
TTITLE11=bye-bye policeman
TTITLE12=real old mountain dew
TTITLE13=sittin'on top of the world
TTITLE14=banjo dreams/jalidong
TTITLE15=Gambia
EXTD=
EXTT0=
EXTT1=
EXTT2=
EXTT3=
EXTT4=
EXTT5=
EXTT6=
EXTT7=
EXTT8=
EXTT9=
EXTT10=
EXTT11=
EXTT12=
EXTT13=
EXTT14=
EXTT15=
PLAYORDER=
